<svg width="148" height="72" viewBox="0 0 148 72" fill="none" xmlns="http://www.w3.org/2000/svg">
<mask id="path-1-outside-1_135_109" maskUnits="userSpaceOnUse" x="6" y="20" width="132" height="34" fill="black">
<rect fill="white" x="6" y="20" width="132" height="34"/>
<path d="M35.8751 22.3529V24.4706H37.9928V47.7647H35.8751V49.8824H33.7575V52H12.581V49.8824H10.4634V47.7647H8.3457V37.1765H10.4634V35.0588H16.8163V37.1765H18.9339V43.5294H23.1692V24.4706H25.2869V28.7059H27.4045V26.5882H29.5222V24.4706H25.2869V22.3529H35.8751ZM69.7657 24.4706H71.8834V39.2941H69.7657V41.4118H67.6481V43.5294H65.5304V45.6471H63.4128V47.7647H61.2952V49.8824H59.1775V52H46.4716V49.8824H44.354V47.7647H42.2363V24.4706H44.354V28.7059H46.4716V26.5882H48.5893V24.4706H44.354V22.3529H54.9422V24.4706H57.0599V39.2941H59.1775V37.1765H61.2952V24.4706H63.4128V22.3529H69.7657V24.4706ZM133.293 26.5882V28.7059H135.411V47.7647H133.293V49.8824H131.175V52H107.881V49.8824H105.764V24.4706H107.881V28.7059H109.999V26.5882H112.117V24.4706H107.881V22.3529H129.058V24.4706H131.175V26.5882H133.293ZM126.94 30.8235H124.822V28.7059H120.587V43.5294H124.822V41.4118H126.94V30.8235Z"/>
</mask>
<path d="M35.8751 22.3529V24.4706H37.9928V47.7647H35.8751V49.8824H33.7575V52H12.581V49.8824H10.4634V47.7647H8.3457V37.1765H10.4634V35.0588H16.8163V37.1765H18.9339V43.5294H23.1692V24.4706H25.2869V28.7059H27.4045V26.5882H29.5222V24.4706H25.2869V22.3529H35.8751ZM69.7657 24.4706H71.8834V39.2941H69.7657V41.4118H67.6481V43.5294H65.5304V45.6471H63.4128V47.7647H61.2952V49.8824H59.1775V52H46.4716V49.8824H44.354V47.7647H42.2363V24.4706H44.354V28.7059H46.4716V26.5882H48.5893V24.4706H44.354V22.3529H54.9422V24.4706H57.0599V39.2941H59.1775V37.1765H61.2952V24.4706H63.4128V22.3529H69.7657V24.4706ZM133.293 26.5882V28.7059H135.411V47.7647H133.293V49.8824H131.175V52H107.881V49.8824H105.764V24.4706H107.881V28.7059H109.999V26.5882H112.117V24.4706H107.881V22.3529H129.058V24.4706H131.175V26.5882H133.293ZM126.94 30.8235H124.822V28.7059H120.587V43.5294H124.822V41.4118H126.94V30.8235Z" fill="url(#paint0_linear_135_109)"/>
<path d="M35.8751 22.3529H37.8751V20.3529H35.8751V22.3529ZM35.8751 24.4706H33.8751V26.4706H35.8751V24.4706ZM37.9928 24.4706H39.9928V22.4706H37.9928V24.4706ZM37.9928 47.7647V49.7647H39.9928V47.7647H37.9928ZM35.8751 47.7647V45.7647H33.8751V47.7647H35.8751ZM35.8751 49.8824V51.8824H37.8751V49.8824H35.8751ZM33.7575 49.8824V47.8824H31.7575V49.8824H33.7575ZM33.7575 52V54H35.7575V52H33.7575ZM12.581 52H10.581V54H12.581V52ZM12.581 49.8824H14.581V47.8824H12.581V49.8824ZM10.4634 49.8824H8.46335V51.8824H10.4634V49.8824ZM10.4634 47.7647H12.4634V45.7647H10.4634V47.7647ZM8.3457 47.7647H6.3457V49.7647H8.3457V47.7647ZM8.3457 37.1765V35.1765H6.3457V37.1765H8.3457ZM10.4634 37.1765V39.1765H12.4634V37.1765H10.4634ZM10.4634 35.0588V33.0588H8.46335V35.0588H10.4634ZM16.8163 35.0588H18.8163V33.0588H16.8163V35.0588ZM16.8163 37.1765H14.8163V39.1765H16.8163V37.1765ZM18.9339 37.1765H20.9339V35.1765H18.9339V37.1765ZM18.9339 43.5294H16.9339V45.5294H18.9339V43.5294ZM23.1692 43.5294V45.5294H25.1692V43.5294H23.1692ZM23.1692 24.4706V22.4706H21.1692V24.4706H23.1692ZM25.2869 24.4706H27.2869V22.4706H25.2869V24.4706ZM25.2869 28.7059H23.2869V30.7059H25.2869V28.7059ZM27.4045 28.7059V30.7059H29.4045V28.7059H27.4045ZM27.4045 26.5882V24.5882H25.4045V26.5882H27.4045ZM29.5222 26.5882V28.5882H31.5222V26.5882H29.5222ZM29.5222 24.4706H31.5222V22.4706H29.5222V24.4706ZM25.2869 24.4706H23.2869V26.4706H25.2869V24.4706ZM25.2869 22.3529V20.3529H23.2869V22.3529H25.2869ZM33.8751 22.3529V24.4706H37.8751V22.3529H33.8751ZM35.8751 26.4706H37.9928V22.4706H35.8751V26.4706ZM35.9928 24.4706V47.7647H39.9928V24.4706H35.9928ZM37.9928 45.7647H35.8751V49.7647H37.9928V45.7647ZM33.8751 47.7647V49.8824H37.8751V47.7647H33.8751ZM35.8751 47.8824H33.7575V51.8824H35.8751V47.8824ZM31.7575 49.8824V52H35.7575V49.8824H31.7575ZM33.7575 50H12.581V54H33.7575V50ZM14.581 52V49.8824H10.581V52H14.581ZM12.581 47.8824H10.4634V51.8824H12.581V47.8824ZM12.4634 49.8824V47.7647H8.46335V49.8824H12.4634ZM10.4634 45.7647H8.3457V49.7647H10.4634V45.7647ZM10.3457 47.7647V37.1765H6.3457V47.7647H10.3457ZM8.3457 39.1765H10.4634V35.1765H8.3457V39.1765ZM12.4634 37.1765V35.0588H8.46335V37.1765H12.4634ZM10.4634 37.0588H16.8163V33.0588H10.4634V37.0588ZM14.8163 35.0588V37.1765H18.8163V35.0588H14.8163ZM16.8163 39.1765H18.9339V35.1765H16.8163V39.1765ZM16.9339 37.1765V43.5294H20.9339V37.1765H16.9339ZM18.9339 45.5294H23.1692V41.5294H18.9339V45.5294ZM25.1692 43.5294V24.4706H21.1692V43.5294H25.1692ZM23.1692 26.4706H25.2869V22.4706H23.1692V26.4706ZM23.2869 24.4706V28.7059H27.2869V24.4706H23.2869ZM25.2869 30.7059H27.4045V26.7059H25.2869V30.7059ZM29.4045 28.7059V26.5882H25.4045V28.7059H29.4045ZM27.4045 28.5882H29.5222V24.5882H27.4045V28.5882ZM31.5222 26.5882V24.4706H27.5222V26.5882H31.5222ZM29.5222 22.4706H25.2869V26.4706H29.5222V22.4706ZM27.2869 24.4706V22.3529H23.2869V24.4706H27.2869ZM25.2869 24.3529H35.8751V20.3529H25.2869V24.3529ZM69.7657 24.4706H67.7657V26.4706H69.7657V24.4706ZM71.8834 24.4706H73.8834V22.4706H71.8834V24.4706ZM71.8834 39.2941V41.2941H73.8834V39.2941H71.8834ZM69.7657 39.2941V37.2941H67.7657V39.2941H69.7657ZM69.7657 41.4118V43.4118H71.7657V41.4118H69.7657ZM67.6481 41.4118V39.4118H65.6481V41.4118H67.6481ZM67.6481 43.5294V45.5294H69.6481V43.5294H67.6481ZM65.5304 43.5294V41.5294H63.5304V43.5294H65.5304ZM65.5304 45.6471V47.6471H67.5304V45.6471H65.5304ZM63.4128 45.6471V43.6471H61.4128V45.6471H63.4128ZM63.4128 47.7647V49.7647H65.4128V47.7647H63.4128ZM61.2952 47.7647V45.7647H59.2952V47.7647H61.2952ZM61.2952 49.8824V51.8824H63.2952V49.8824H61.2952ZM59.1775 49.8824V47.8824H57.1775V49.8824H59.1775ZM59.1775 52V54H61.1775V52H59.1775ZM46.4716 52H44.4716V54H46.4716V52ZM46.4716 49.8824H48.4716V47.8824H46.4716V49.8824ZM44.354 49.8824H42.354V51.8824H44.354V49.8824ZM44.354 47.7647H46.354V45.7647H44.354V47.7647ZM42.2363 47.7647H40.2363V49.7647H42.2363V47.7647ZM42.2363 24.4706V22.4706H40.2363V24.4706H42.2363ZM44.354 24.4706H46.354V22.4706H44.354V24.4706ZM44.354 28.7059H42.354V30.7059H44.354V28.7059ZM46.4716 28.7059V30.7059H48.4716V28.7059H46.4716ZM46.4716 26.5882V24.5882H44.4716V26.5882H46.4716ZM48.5893 26.5882V28.5882H50.5893V26.5882H48.5893ZM48.5893 24.4706H50.5893V22.4706H48.5893V24.4706ZM44.354 24.4706H42.354V26.4706H44.354V24.4706ZM44.354 22.3529V20.3529H42.354V22.3529H44.354ZM54.9422 22.3529H56.9422V20.3529H54.9422V22.3529ZM54.9422 24.4706H52.9422V26.4706H54.9422V24.4706ZM57.0599 24.4706H59.0599V22.4706H57.0599V24.4706ZM57.0599 39.2941H55.0599V41.2941H57.0599V39.2941ZM59.1775 39.2941V41.2941H61.1775V39.2941H59.1775ZM59.1775 37.1765V35.1765H57.1775V37.1765H59.1775ZM61.2952 37.1765V39.1765H63.2952V37.1765H61.2952ZM61.2952 24.4706V22.4706H59.2952V24.4706H61.2952ZM63.4128 24.4706V26.4706H65.4128V24.4706H63.4128ZM63.4128 22.3529V20.3529H61.4128V22.3529H63.4128ZM69.7657 22.3529H71.7657V20.3529H69.7657V22.3529ZM69.7657 26.4706H71.8834V22.4706H69.7657V26.4706ZM69.8834 24.4706V39.2941H73.8834V24.4706H69.8834ZM71.8834 37.2941H69.7657V41.2941H71.8834V37.2941ZM67.7657 39.2941V41.4118H71.7657V39.2941H67.7657ZM69.7657 39.4118H67.6481V43.4118H69.7657V39.4118ZM65.6481 41.4118V43.5294H69.6481V41.4118H65.6481ZM67.6481 41.5294H65.5304V45.5294H67.6481V41.5294ZM63.5304 43.5294V45.6471H67.5304V43.5294H63.5304ZM65.5304 43.6471H63.4128V47.6471H65.5304V43.6471ZM61.4128 45.6471V47.7647H65.4128V45.6471H61.4128ZM63.4128 45.7647H61.2952V49.7647H63.4128V45.7647ZM59.2952 47.7647V49.8824H63.2952V47.7647H59.2952ZM61.2952 47.8824H59.1775V51.8824H61.2952V47.8824ZM57.1775 49.8824V52H61.1775V49.8824H57.1775ZM59.1775 50H46.4716V54H59.1775V50ZM48.4716 52V49.8824H44.4716V52H48.4716ZM46.4716 47.8824H44.354V51.8824H46.4716V47.8824ZM46.354 49.8824V47.7647H42.354V49.8824H46.354ZM44.354 45.7647H42.2363V49.7647H44.354V45.7647ZM44.2363 47.7647V24.4706H40.2363V47.7647H44.2363ZM42.2363 26.4706H44.354V22.4706H42.2363V26.4706ZM42.354 24.4706V28.7059H46.354V24.4706H42.354ZM44.354 30.7059H46.4716V26.7059H44.354V30.7059ZM48.4716 28.7059V26.5882H44.4716V28.7059H48.4716ZM46.4716 28.5882H48.5893V24.5882H46.4716V28.5882ZM50.5893 26.5882V24.4706H46.5893V26.5882H50.5893ZM48.5893 22.4706H44.354V26.4706H48.5893V22.4706ZM46.354 24.4706V22.3529H42.354V24.4706H46.354ZM44.354 24.3529H54.9422V20.3529H44.354V24.3529ZM52.9422 22.3529V24.4706H56.9422V22.3529H52.9422ZM54.9422 26.4706H57.0599V22.4706H54.9422V26.4706ZM55.0599 24.4706V39.2941H59.0599V24.4706H55.0599ZM57.0599 41.2941H59.1775V37.2941H57.0599V41.2941ZM61.1775 39.2941V37.1765H57.1775V39.2941H61.1775ZM59.1775 39.1765H61.2952V35.1765H59.1775V39.1765ZM63.2952 37.1765V24.4706H59.2952V37.1765H63.2952ZM61.2952 26.4706H63.4128V22.4706H61.2952V26.4706ZM65.4128 24.4706V22.3529H61.4128V24.4706H65.4128ZM63.4128 24.3529H69.7657V20.3529H63.4128V24.3529ZM67.7657 22.3529V24.4706H71.7657V22.3529H67.7657ZM133.293 26.5882H135.293V24.5882H133.293V26.5882ZM133.293 28.7059H131.293V30.7059H133.293V28.7059ZM135.411 28.7059H137.411V26.7059H135.411V28.7059ZM135.411 47.7647V49.7647H137.411V47.7647H135.411ZM133.293 47.7647V45.7647H131.293V47.7647H133.293ZM133.293 49.8824V51.8824H135.293V49.8824H133.293ZM131.175 49.8824V47.8824H129.175V49.8824H131.175ZM131.175 52V54H133.175V52H131.175ZM107.881 52H105.881V54H107.881V52ZM107.881 49.8824H109.881V47.8824H107.881V49.8824ZM105.764 49.8824H103.764V51.8824H105.764V49.8824ZM105.764 24.4706V22.4706H103.764V24.4706H105.764ZM107.881 24.4706H109.881V22.4706H107.881V24.4706ZM107.881 28.7059H105.881V30.7059H107.881V28.7059ZM109.999 28.7059V30.7059H111.999V28.7059H109.999ZM109.999 26.5882V24.5882H107.999V26.5882H109.999ZM112.117 26.5882V28.5882H114.117V26.5882H112.117ZM112.117 24.4706H114.117V22.4706H112.117V24.4706ZM107.881 24.4706H105.881V26.4706H107.881V24.4706ZM107.881 22.3529V20.3529H105.881V22.3529H107.881ZM129.058 22.3529H131.058V20.3529H129.058V22.3529ZM129.058 24.4706H127.058V26.4706H129.058V24.4706ZM131.175 24.4706H133.175V22.4706H131.175V24.4706ZM131.175 26.5882H129.175V28.5882H131.175V26.5882ZM126.94 30.8235H128.94V28.8235H126.94V30.8235ZM124.822 30.8235H122.822V32.8235H124.822V30.8235ZM124.822 28.7059H126.822V26.7059H124.822V28.7059ZM120.587 28.7059V26.7059H118.587V28.7059H120.587ZM120.587 43.5294H118.587V45.5294H120.587V43.5294ZM124.822 43.5294V45.5294H126.822V43.5294H124.822ZM124.822 41.4118V39.4118H122.822V41.4118H124.822ZM126.94 41.4118V43.4118H128.94V41.4118H126.94ZM131.293 26.5882V28.7059H135.293V26.5882H131.293ZM133.293 30.7059H135.411V26.7059H133.293V30.7059ZM133.411 28.7059V47.7647H137.411V28.7059H133.411ZM135.411 45.7647H133.293V49.7647H135.411V45.7647ZM131.293 47.7647V49.8824H135.293V47.7647H131.293ZM133.293 47.8824H131.175V51.8824H133.293V47.8824ZM129.175 49.8824V52H133.175V49.8824H129.175ZM131.175 50H107.881V54H131.175V50ZM109.881 52V49.8824H105.881V52H109.881ZM107.881 47.8824H105.764V51.8824H107.881V47.8824ZM107.764 49.8824V24.4706H103.764V49.8824H107.764ZM105.764 26.4706H107.881V22.4706H105.764V26.4706ZM105.881 24.4706V28.7059H109.881V24.4706H105.881ZM107.881 30.7059H109.999V26.7059H107.881V30.7059ZM111.999 28.7059V26.5882H107.999V28.7059H111.999ZM109.999 28.5882H112.117V24.5882H109.999V28.5882ZM114.117 26.5882V24.4706H110.117V26.5882H114.117ZM112.117 22.4706H107.881V26.4706H112.117V22.4706ZM109.881 24.4706V22.3529H105.881V24.4706H109.881ZM107.881 24.3529H129.058V20.3529H107.881V24.3529ZM127.058 22.3529V24.4706H131.058V22.3529H127.058ZM129.058 26.4706H131.175V22.4706H129.058V26.4706ZM129.175 24.4706V26.5882H133.175V24.4706H129.175ZM131.175 28.5882H133.293V24.5882H131.175V28.5882ZM126.94 28.8235H124.822V32.8235H126.94V28.8235ZM126.822 30.8235V28.7059H122.822V30.8235H126.822ZM124.822 26.7059H120.587V30.7059H124.822V26.7059ZM118.587 28.7059V43.5294H122.587V28.7059H118.587ZM120.587 45.5294H124.822V41.5294H120.587V45.5294ZM126.822 43.5294V41.4118H122.822V43.5294H126.822ZM124.822 43.4118H126.94V39.4118H124.822V43.4118ZM128.94 41.4118V30.8235H124.94V41.4118H128.94Z" fill="black" mask="url(#path-1-outside-1_135_109)"/>
<path d="M105.528 45.8829C105.528 45.8829 105.533 45.9003 105.545 45.9351C105.545 45.9351 105.527 45.9409 105.493 45.9525C105.504 46.1032 105.515 46.254 105.527 46.4047C105.538 46.5555 105.544 46.6888 105.544 46.8048C105.439 46.9553 105.329 47.0885 105.213 47.2043C105.097 47.3201 105.027 47.4592 105.003 47.6214C104.922 47.7257 104.87 47.859 104.846 48.0213C104.811 48.1488 104.771 48.2588 104.724 48.3515C104.631 48.5369 104.492 48.6991 104.306 48.8379C104.155 48.9653 104.039 49.139 103.957 49.3592C103.899 49.5331 103.8 49.7011 103.661 49.8632C103.522 50.0253 103.394 50.2223 103.277 50.454C103.184 50.6394 103.109 50.819 103.051 50.9928C102.992 51.1667 102.957 51.3522 102.945 51.5493C102.713 51.6649 102.487 51.682 102.267 51.6005C102.082 51.5075 101.879 51.4202 101.659 51.3387C101.439 51.2573 101.213 51.1584 100.981 51.0421C100.865 50.926 100.703 50.7866 100.494 50.624C100.321 50.4498 100.141 50.2583 99.9561 50.0493C99.6432 49.9213 99.336 49.8687 99.0345 49.8915C98.7678 49.9027 98.4779 49.9023 98.1649 49.8902C98.072 49.9597 97.9965 50.0233 97.9385 50.0812C97.8804 50.1391 97.8281 50.2144 97.7816 50.3071C97.6771 50.4577 97.5434 50.6952 97.3806 51.0196C97.2297 51.147 97.0845 51.2917 96.9452 51.4538C96.7943 51.5812 96.6433 51.7085 96.4924 51.8358C96.4225 52.0908 96.3468 52.3284 96.2653 52.5486C96.2071 52.7225 96.1663 52.8905 96.1429 53.0528C95.9454 53.2729 95.748 53.4929 95.5506 53.7129C95.3647 53.9677 95.1905 54.1994 95.0278 54.4079C94.842 54.6627 94.5922 54.958 94.2787 55.2938C93.9998 55.7341 93.6457 56.064 93.2164 56.2837C92.787 56.5034 92.3288 56.6941 91.8415 56.8557C91.4587 56.9827 91.0527 57.0981 90.6236 57.2019C90.1944 57.3056 89.7711 57.3688 89.3537 57.3914C89.0985 57.4374 88.8144 57.4544 88.5013 57.4424C88.2346 57.4536 87.9679 57.4648 87.7012 57.476C87.3418 57.4407 86.994 57.4402 86.6577 57.4745C86.3562 57.4973 86.0604 57.5955 85.7703 57.769C85.7355 57.7805 85.6659 57.8036 85.5615 57.8382C85.4918 57.8613 85.4165 57.867 85.3353 57.8553C84.5699 57.9934 83.9149 57.8823 83.3704 57.5221C82.9998 57.2201 82.6002 56.9471 82.1715 56.703C81.7661 56.4125 81.3316 56.151 80.8682 55.9184C80.5322 55.7209 80.26 55.4828 80.0517 55.2042C79.8434 54.9256 79.6467 54.6239 79.4617 54.299C79.2307 53.6029 78.9592 52.959 78.6469 52.3672C78.485 52.1119 78.3926 51.8335 78.3698 51.532C78.2893 51.0565 78.2146 50.5984 78.1457 50.1577C78.1115 49.7054 78.0194 49.2531 77.8693 48.8007C77.8231 48.6615 77.8117 48.5107 77.8351 48.3484C77.8239 48.0817 77.8649 47.7977 77.9581 47.4964C78.2027 46.7198 78.279 46.0184 78.1872 45.3922C78.315 45.1952 78.4138 45.0273 78.4836 44.8882C78.5766 44.7028 78.658 44.5406 78.7277 44.4016L78.5892 43.9839C78.7172 43.6711 78.8452 43.3582 78.9731 43.0453C79.0896 42.6976 79.2407 42.3963 79.4266 42.1415C79.566 41.9794 79.6358 41.8403 79.6359 41.7244C79.6593 41.5621 79.6539 41.3128 79.6196 40.9765C79.3648 40.7906 79.0868 40.5931 78.7856 40.384C78.5192 40.1633 78.2528 39.9426 77.9865 39.7219C77.9055 39.5943 77.7781 39.5013 77.6042 39.4431C77.4652 39.3733 77.303 39.2919 77.1176 39.1989C76.9322 39.1059 76.741 38.9955 76.5441 38.8677C76.3471 38.7398 76.156 38.6294 75.9706 38.5364C75.774 38.1767 75.56 37.8227 75.3286 37.4745C75.132 37.1148 74.9353 36.7551 74.7387 36.3954C74.6116 36.1285 74.4902 35.879 74.3745 35.647C74.2822 35.3686 74.1956 35.1076 74.1148 34.8639C73.9874 34.713 73.9297 34.539 73.9416 34.3419C73.9534 34.1448 73.9305 33.9593 73.8728 33.7853C73.8151 33.6113 73.7805 33.4489 73.7691 33.2981C73.6421 32.9153 73.6252 32.5732 73.7184 32.2719C73.8352 31.6923 73.8127 31.1589 73.6511 30.6717C73.8023 30.3125 73.9304 29.9416 74.0353 29.5591C74.175 29.1651 74.361 28.7943 74.5934 28.4468C74.6981 28.1802 74.7682 27.8673 74.8034 27.5079C74.897 26.9746 75.1524 26.6967 75.5699 26.6741C75.5699 26.6741 75.6221 26.6568 75.7265 26.6222C75.8078 26.5179 75.8428 26.3904 75.8314 26.2397C75.82 26.0889 75.8433 25.9846 75.9014 25.9267C75.9131 25.8455 75.9422 25.7586 75.9887 25.6659C76.1514 25.4575 76.3198 25.2664 76.4939 25.0927C76.6681 24.919 76.8191 24.7337 76.9469 24.5368C77.063 24.421 77.1733 24.3458 77.2777 24.3111C77.4169 24.2649 77.5388 24.1666 77.6434 24.016C77.6899 23.9233 77.7653 23.8596 77.8697 23.825C78.0089 23.7788 78.1481 23.7326 78.2873 23.6864C78.6354 23.571 78.9255 23.3974 79.1577 23.1659C79.4595 22.9112 79.7671 22.7319 80.0803 22.628C80.3819 22.4893 80.7009 22.4028 81.0372 22.3685C81.4431 22.3111 81.8085 22.2478 82.1332 22.1787C82.4812 22.0632 82.8407 22.0406 83.2117 22.1106C83.4901 22.0183 83.7858 21.9781 84.0988 21.9901C84.4119 22.0022 84.696 21.9852 84.9512 21.9392C85.3455 21.847 85.6934 21.8475 85.9947 21.9406C86.296 22.0338 86.6089 22.1618 86.9334 22.3246C87.1303 22.4524 87.3098 22.586 87.472 22.7254C87.6574 22.8184 87.8485 22.9288 88.0454 23.0567C88.4278 23.2775 88.8159 23.5157 89.2097 23.7714C89.5921 23.9922 89.9628 24.2363 90.3218 24.5034C90.4492 24.6544 90.5765 24.8053 90.7038 24.9562C90.8196 25.0723 90.9412 25.2058 91.0685 25.3567C91.3812 25.6007 91.6243 25.8677 91.7979 26.1578C92.0062 26.4364 92.1042 26.7902 92.092 27.2192C92.1036 27.254 92.1035 27.312 92.0918 27.3931C92.1033 27.4279 92.1149 27.4627 92.1264 27.4975C92.2538 27.6484 92.3057 27.805 92.2823 27.9673C92.2937 28.1181 92.3456 28.2747 92.4382 28.4371C92.4844 28.5764 92.5248 28.6982 92.5594 28.8026C92.6288 28.8954 92.6693 29.0172 92.6806 29.168C92.7151 29.3883 92.738 29.6319 92.7492 29.8986C92.7489 30.1305 92.8065 30.3624 92.9221 30.5945C93.0376 30.9425 93.0138 31.3367 92.8509 31.7771C92.781 32.0321 92.711 32.2871 92.6411 32.5421C92.5596 32.7623 92.4202 32.9824 92.2227 33.2024C92.1645 33.3762 92.1237 33.5443 92.1003 33.7066C92.0769 33.8689 92.0592 34.0486 92.0473 34.2457C92.0239 34.408 91.9773 34.5587 91.9076 34.6977C91.8263 34.802 91.7565 34.941 91.6983 35.1148C91.5121 35.6016 91.3259 36.0883 91.1397 36.575C90.9534 37.0618 90.7672 37.5485 90.581 38.0352C90.4648 38.267 90.5283 38.4584 90.7715 38.6094C90.8642 38.6559 90.9627 38.7199 91.0669 38.8012C91.1712 38.8825 91.2871 38.9406 91.4145 38.9756C91.4261 39.0104 91.4434 39.0626 91.4665 39.1322C91.5244 39.1903 91.5649 39.2541 91.588 39.3237C91.6343 39.3469 91.6691 39.3934 91.6921 39.463C91.7037 39.4978 91.7384 39.5442 91.7963 39.6023C92.2944 39.9392 92.8159 40.1719 93.3606 40.3002C93.9054 40.4285 94.485 40.5452 95.0994 40.6505C95.3547 40.4885 95.5348 40.2742 95.6395 40.0077C95.7442 39.7412 95.9068 39.5327 96.1274 39.3823C96.1275 39.2663 96.1161 39.1735 96.093 39.1039C96.0583 38.9995 96.0411 38.8894 96.0413 38.7734C96.0297 38.7386 96.0239 38.7212 96.0239 38.7212C96.0587 38.7097 96.0704 38.6865 96.0588 38.6517C96.1751 38.4199 96.2102 38.1765 96.1642 37.9213C96.153 37.6546 96.1881 37.4112 96.2696 37.191C96.3859 36.9593 96.5079 36.7449 96.6357 36.548C96.7868 36.3047 96.9089 36.0904 97.0019 35.905C97.0484 35.8123 97.0949 35.7196 97.1414 35.6269C97.1764 35.4994 97.2113 35.3719 97.2463 35.2444C97.3047 34.9546 97.4499 34.7519 97.682 34.6363C97.9838 34.3816 98.2621 34.3472 98.517 34.5331C98.5749 34.5912 98.6965 34.6667 98.8819 34.7597C99.6696 35.271 100.376 35.8866 101.001 36.6063C101.221 36.8038 101.453 36.978 101.696 37.1291C101.974 37.2686 102.218 37.4197 102.426 37.5823C102.53 37.6636 102.64 37.7623 102.756 37.8785C102.825 38.0873 102.825 38.3192 102.755 38.5742C102.534 39.0724 102.313 39.5707 102.092 40.069C101.871 40.5673 101.627 41.0539 101.359 41.5289C101.197 41.8534 101.231 42.1317 101.463 42.3639C101.775 42.6078 102.106 42.846 102.453 43.0784C102.789 43.276 103.137 43.5084 103.496 43.7756C103.751 43.8455 103.919 43.9443 104 44.072C104.289 44.3622 104.573 44.6351 104.851 44.8906C105.129 45.1461 105.354 45.4769 105.528 45.8829ZM86.764 31.4207L86.6947 31.2119C86.5791 30.9798 86.4461 30.7535 86.2957 30.533C86.1685 30.2661 86.0471 30.0167 85.9315 29.7846C85.7461 29.6916 85.5781 29.5928 85.4275 29.4882C85.2769 29.3836 85.0915 29.2906 84.8713 29.2091C84.7323 29.1394 84.5817 29.0348 84.4196 28.8954C84.2922 28.7445 84.1416 28.64 83.9678 28.5817C83.933 28.5933 83.8982 28.6048 83.8634 28.6164C83.8171 28.5931 83.7765 28.5873 83.7417 28.5988C83.5213 28.6333 83.2951 28.7083 83.063 28.824C82.8658 28.928 82.628 28.9683 82.3498 28.9447C82.0714 29.0371 81.7987 29.1468 81.5319 29.274C81.2998 29.3896 81.0734 29.5806 80.8528 29.847C80.6438 30.0322 80.4695 30.2639 80.33 30.542C80.0973 31.1214 79.9805 31.701 79.9797 32.2807C80.0137 32.8489 80.2158 33.4 80.5861 33.9339C80.5861 33.9339 80.5919 33.9513 80.6034 33.9861C80.6382 33.9745 80.6614 33.9862 80.6729 34.021C80.8235 34.1255 80.9683 34.2127 81.1074 34.2825C81.2464 34.3522 81.3855 34.422 81.5245 34.4918C81.6055 34.6194 81.6691 34.7528 81.7153 34.8921C81.7847 34.9849 81.8484 35.0604 81.9063 35.1184C82.1728 35.2232 82.4219 35.3337 82.6537 35.4499C82.9202 35.5547 83.1926 35.6188 83.4709 35.6424C83.6101 35.5962 83.7376 35.6312 83.8533 35.7473C84.0735 35.8288 84.2532 35.8464 84.3924 35.8002C84.5316 35.7541 84.6651 35.6905 84.7927 35.6095C85.1411 35.2621 85.3851 34.8914 85.5248 34.4974C85.5949 34.1265 85.7286 33.831 85.9261 33.6109C86.1119 33.3561 86.2804 33.1071 86.4315 32.8638C86.5014 32.6088 86.554 32.3596 86.5891 32.1161C86.6242 31.8727 86.6825 31.6409 86.764 31.4207ZM92.6551 47.2562C92.5278 47.1053 92.3656 47.0239 92.1685 47.012C91.9598 46.9653 91.7628 46.8955 91.5774 46.8025C91.4501 46.6515 91.3054 46.5064 91.1432 46.367C90.9811 46.2277 90.8421 46.0999 90.7264 45.9838C90.541 45.8908 90.373 45.792 90.2224 45.6874C90.0718 45.5829 89.9038 45.4841 89.7184 45.391C89.3475 45.321 88.9708 45.2335 88.5883 45.1286C88.229 44.9773 87.9047 44.7566 87.6152 44.4663C87.3373 44.2108 86.9607 44.0653 86.4853 44.0299C86.3113 44.0876 86.1257 44.1685 85.9284 44.2726C85.7544 44.3303 85.5804 44.388 85.4064 44.4458C85.0813 44.7468 84.9011 45.077 84.8658 45.4364C84.8538 45.7494 84.807 46.074 84.7253 46.4102L84.8812 46.88C84.8926 47.0307 84.8692 47.193 84.8109 47.3669C84.7412 47.5059 84.7004 47.674 84.6885 47.8711C84.56 48.5318 84.513 48.9724 84.5475 49.1927C84.6052 49.3667 84.825 49.7381 85.2068 50.3068C85.2995 50.3533 85.3632 50.4287 85.3978 50.5331C85.4673 50.626 85.5309 50.7015 85.5888 50.7595C85.6814 50.922 85.774 51.0265 85.8667 51.073C86.0869 51.1545 86.307 51.2359 86.5272 51.3174C86.7474 51.3989 86.9502 51.4861 87.1356 51.5791C87.4371 51.5564 87.7037 51.6031 87.9355 51.7194C88.202 51.8241 88.4686 51.8709 88.7353 51.8597C89.0833 51.7442 89.4314 51.6288 89.7794 51.5133C90.1274 51.3978 90.4581 51.2302 90.7714 51.0103C90.7371 50.674 90.8012 50.4596 90.9637 50.3671C91.1609 50.263 91.3756 50.1531 91.6077 50.0375C91.6891 49.8173 91.817 49.6204 91.9911 49.4467C92.1653 49.273 92.2526 49.0702 92.2529 48.8383C92.3113 48.5485 92.3986 48.2878 92.5149 48.056C92.6659 47.8128 92.7127 47.5461 92.6551 47.2562Z" fill="white"/>
<defs>
<linearGradient id="paint0_linear_135_109" x1="74" y1="17" x2="74" y2="59" gradientUnits="userSpaceOnUse">
<stop stop-color="#6D67E4"/>
<stop offset="1" stop-color="#F2F7A1"/>
</linearGradient>
</defs>
</svg>
